{"accessors" : [{"bufferView" : 0, "byteOffset" : 0, "componentType" : 5123, "count" : 64080, "type" : "SCALAR", "max" : [64079], "min" : [0]}, {"bufferView" : 1, "byteOffset" : 0, "componentType" : 5126, "count" : 64080, "type" : "VEC3", "max" : [0.9680200219154358, 0.9680200219154358, 0.9680200219154358], "min" : [-0.9680200219154358, -0.9680200219154358, -0.9680200219154358], "name" : "POSITION"}, {"bufferView" : 1, "byteOffset" : 12, "componentType" : 5126, "count" : 64080, "type" : "VEC3", "max" : [1.0000044107437134, 0.9997836351394653, 1.0000044107437134], "min" : [-1.0000044107437134, -0.9997836351394653, -1.0000044107437134], "name" : "NORMAL"}, {"bufferView" : 0, "byteOffset" : 128160, "componentType" : 5123, "count" : 32040, "type" : "SCALAR", "max" : [32039], "min" : [0]}, {"bufferView" : 2, "byteOffset" : 0, "componentType" : 5126, "count" : 32040, "type" : "VEC3", "max" : [0.9432200193405151, 0.9432200193405151, 0.9432200193405151], "min" : [-0.9432200193405151, -0.9432200193405151, -0.9432200193405151], "name" : "POSITION"}, {"bufferView" : 2, "byteOffset" : 12, "componentType" : 5126, "count" : 32040, "type" : "VEC3", "max" : [1.0000044107437134, 0.9997836351394653, 1.0000044107437134], "min" : [-1.0000044107437134, -0.9997836351394653, -1.0000044107437134], "name" : "NORMAL"}], "asset" : {"generator" : "Aspose.3D 22.1", "version" : "2.0"}, "buffers" : [{"uri" : "data:application/octet-stream;base64,", "byteLength" : 2499132}], "bufferViews" : [{"buffer" : 0, "byteOffset" : 0, "byteLength" : 192240, "target" : 34963}, {"buffer" : 0, "byteOffset" : 192244, "byteLength" : 1537920, "byteStride" : 24, "target" : 34962}, {"buffer" : 0, "byteOffset" : 1730168, "byteLength" : 768960, "byteStride" : 24, "target" : 34962}], "cameras" : [{"perspective" : {"aspectRatio" : 1.3333333333333333, "yfov" : 0.8575560437009356, "zfar" : 99.999994, "znear" : 0.1}, "type" : "perspective", "name" : "Camera"}], "materials" : [{"name" : "", "pbrMetallicRoughness" : {"baseColorFactor" : [0.8, 0.8, 0.8, 1], "metallicFactor" : 0, "roughnessFactor" : 0}, "emissiveFactor" : [0.8, 0.8, 0.8], "alphaMode" : "OPAQUE", "doubleSided" : false}, {"name" : "", "pbrMetallicRoughness" : {"baseColorFactor" : [0.017400000000000006, 0.017400000000000006, 0.017400000000000006, 1], "metallicFactor" : 0, "roughnessFactor" : 0}, "emissiveFactor" : [0.017400000000000006, 0.017400000000000006, 0.017400000000000006], "alphaMode" : "OPAQUE", "doubleSided" : false}], "meshes" : [{"primitives" : [{"attributes" : {"POSITION" : 1, "NORMAL" : 2}, "indices" : 0, "material" : 0, "mode" : 4}, {"attributes" : {"POSITION" : 4, "NORMAL" : 5}, "indices" : 3, "material" : 1, "mode" : 4}], "name" : "Solid_001"}], "nodes" : [{"matrix" : [1, 0, 0, 0, 0, -1.6291842275251156E-07, -0.9999999999999868, 0, 0, 0.9999999999999868, -1.6291842275251156E-07, 0, 0, 0, 0, 1], "mesh" : 0, "name" : "Solid_001"}, {"camera" : 0, "matrix" : [-0.8235703288732663, 0.16832339054686163, -0.5416633175639533, 0, 0.059067673698519174, 0.9752124298652771, 0.21324072629500385, 0, 0.5641302357678629, 0.14362395154828023, -0.8130985411585436, 0, 7.481131553649902, 5.34366512298584, 6.5076398849487305, 1], "name" : "Camera"}], "scene" : 0, "scenes" : [{"nodes" : [0, 1]}]}