<?xml version="1.0" encoding="utf-8"?>
<!-- Generator: Adobe Illustrator 25.2.3, SVG Export Plug-In . SVG Version: 6.00 Build 0)  -->
<svg version="1.1" id="Warstwa_1" xmlns="http://www.w3.org/2000/svg" xmlns:xlink="http://www.w3.org/1999/xlink" x="0px" y="0px"
	 viewBox="0 0 992.4 290.3" style="enable-background:new 0 0 992.4 290.3;" xml:space="preserve">
<style type="text/css">
	.st0{fill:#C0944A;}
	.st1{fill:#004993;}
	.st2{fill:#FFFFFF;}
</style>
<g>
	<g>
		<g>
			<path class="st0" d="M153,274.9h-13.5v4.5H153V274.9z M159.6,265.8h-20.1v4.5h20.1V265.8z M166.4,256.8h-26.9v4.5h26.9V256.8z
				 M51.6,248.1H34.1v4.8h4v35.3h4.8v-35.3h3.9v35.3h4.8V248.1z M31.5,274.9H18v4.5h13.5V274.9z M31.5,265.8H11.4v4.5h20.1V265.8z
				 M31.5,256.8H4.5v4.5h26.9V256.8z M65.9,256.3c3.1-3.1,7.4-5,12.1-5c10.5,0,14.8,8.8,18.6,16.5c1.4,2.8,2.7,5.5,4.3,7.8
				c2,2.9,4.9,4.8,8.1,5.5c3.1,0.6,6.5,0.1,9.5-1.8c1.8-1.2,3.2-2.8,4.2-4.7c1-1.9,1.5-4,1.5-6.2c0-7.3-6-13.3-13.3-13.3
				c-1.8,0-3.5,0.4-5.1,1c-1.2,0.5-2.3,1.2-3.3,1.9l2.5,4.2c0.8-0.7,1.7-1.3,2.6-1.7c1-0.4,2.1-0.6,3.2-0.6c4.7,0,8.5,3.8,8.5,8.5
				c0,1.4-0.3,2.8-1,4c-0.6,1.2-1.5,2.2-2.6,2.9c-1.9,1.2-4,1.6-5.9,1.2c-2-0.4-3.9-1.7-5.2-3.5c-1.3-2-2.6-4.5-3.9-7.2
				c-1.2-2.4-2.3-4.8-3.7-7.1c1.4-2,3.3-3.7,5.5-5c2.6-1.5,5.5-2.3,8.6-2.3c9.4,0,17.1,7.7,17.1,17.1c0,4.7-1.9,9-5,12.1
				c-3.1,3.1-7.4,5-12.1,5c-10.5,0-14.8-8.8-18.6-16.5c-1.4-2.8-2.7-5.5-4.3-7.8c-2-2.9-4.9-4.8-8.1-5.5c-3.1-0.7-6.5-0.1-9.5,1.8
				c-1.8,1.2-3.2,2.8-4.2,4.7c-1,1.9-1.5,4-1.5,6.2c0,7.3,6,13.3,13.3,13.3c1.8,0,3.5-0.4,5.1-1c1.2-0.5,2.3-1.2,3.3-2l-2.5-4.2
				c-0.8,0.8-1.7,1.4-2.7,1.8c-1,0.4-2.1,0.6-3.2,0.6c-4.7,0-8.5-3.8-8.5-8.5c0-1.4,0.3-2.8,1-4c0.6-1.2,1.5-2.2,2.6-2.9
				c1.9-1.2,4-1.6,5.9-1.2c2,0.4,3.9,1.7,5.2,3.5c1.3,2,2.6,4.5,3.9,7.2c1.2,2.4,2.3,4.8,3.7,7.1c-1.4,2-3.3,3.7-5.5,5
				c-2.6,1.5-5.5,2.3-8.6,2.3c-9.4,0-17.1-7.7-17.1-17.1C60.9,263.7,62.8,259.4,65.9,256.3 M0,0l15.2,42.8H0l13.5,16.1v94.5l-9-3.1
				l0,23.8l9,3.1v24.2l-9-3.1l0,23.9l71,24.4c-5,0.6-9.5,2.9-12.9,6.3c-4,4-6.4,9.4-6.4,15.5c0,12.1,9.8,21.9,21.9,21.9
				c3.9,0,7.7-1.1,10.9-3c2.2-1.3,4.3-3,5.9-5c3.6,4.6,8.6,7.9,16.3,7.9c6,0,11.5-2.5,15.5-6.4c4-4,6.4-9.4,6.4-15.5
				c0-12.1-9.8-21.9-21.9-21.9c-3.9,0-7.7,1.1-10.9,3c-2.2,1.3-4.3,3-5.9,5c-1.7-2.1-3.6-3.9-6-5.3l78.1-26.9l0-23.9l-9,3.1v-24.2
				l9-3.1l0-23.8l-9,3.1V58.9L171,42.8h-15.2L171,0H0z"/>
			<polygon class="st1" points="164.6,4.5 149.8,47.3 161.4,47.3 161.4,47.3 153,57.3 153,159.7 162,156.6 162,171 153,174.1 
				153,207.8 162,204.7 162,219 85.5,245.3 9,219 9,204.7 18,207.8 18,174.1 9,171 9,166.2 9,156.6 9,156.6 9,156.6 18,159.7 
				18,57.3 9.6,47.3 21.2,47.3 6.4,4.5 			"/>
			<polygon class="st2" points="151.7,51.8 148.5,55.7 148.5,166 157.5,162.9 157.5,167.7 148.5,170.8 148.5,214.1 157.5,211 
				157.5,215.8 85.5,240.6 13.5,215.8 13.5,211 22.5,214.1 22.5,170.8 13.5,167.7 13.5,162.9 22.5,166 22.5,55.7 19.3,51.8 54,51.8 
				54,56.3 27,56.3 27,167.6 83.2,187 83.2,67.6 87.8,67.6 87.8,187 144,167.6 144,56.3 117,56.3 117,51.8 			"/>
			<polygon class="st2" points="158.2,9 144.6,47.3 117,47.3 117,40.6 54,40.6 54,47.3 26.4,47.3 12.8,9 			"/>
			<polygon class="st1" points="144,172.4 144,215.7 85.5,235.8 27,215.7 27,172.4 85.5,192.5 			"/>
			<polygon class="st2" points="139.5,178.7 139.5,212.5 85.5,231.1 31.5,212.5 31.5,178.7 85.5,197.3 			"/>
			<rect x="58.5" y="45.1" class="st2" width="54" height="18"/>
			<polygon class="st2" points="117,60.9 139.5,60.9 139.5,164.4 93,180.4 93,67.6 117,67.6 			"/>
			<path class="st1" d="M71.7,60.9V47.3H69l-2.2,1.4v1.9l1.8,0v10.4H71.7z M80.1,52.7c0,1.1-1.9,1.2-1.9,0v-2.2c0-1.2,1.9-1.1,1.9,0
				V52.7z M83.2,58v-5.4v-0.3v-2.1c0-4.3-8.1-4.3-8.1,0v0.3v2v0.3c0,3.1,3.1,4,5,2.7v2.2c0,1.1-1.7,1.2-1.7,0v-0.3h-3.1V58
				C75.3,62.3,83.2,62.3,83.2,58 M86.3,61H94v-2.7H90l3.3-4.6c0.9-1.3,0.7-1.7,0.7-3.4c0-4.3-7.9-4.3-7.9,0V52H89v-1.5
				c0-1.2,1.9-1.1,1.9,0c0,1.5,0.1,1.4-0.7,2.5l-3.9,5.3V61z M104.2,58.3h-4.1l3.3-4.6c0.9-1.3,0.7-1.7,0.7-3.4c0-4.3-7.9-4.3-7.9,0
				V52h2.9v-1.5c0-1.2,1.9-1.1,1.9,0c0,1.5,0.1,1.4-0.7,2.5l-3.9,5.3V61h7.7V58.3z"/>
			<path class="st1" d="M44.9,200.2c0,0.9-0.3,1.2-0.8,1.2c-0.9,0-1.8-0.6-2.6-1v-8.1l2.1,0.8c0.5,0.2,0.8,0.4,1,0.8h0
				c0.2,0.3,0.3,0.8,0.3,1.3V200.2z M50.2,201.4l0.1-4.9c0-2.2-0.6-4-1.7-5.3c-1.1-1.3-2.8-2.3-4.7-3l-7.7-2.7v23.2l5.4,1.8v-6.1
				c1.9,0.9,4,1.6,5.6,1.4C48.9,205.7,50.1,204.4,50.2,201.4 M62,212.3c0,0.7-0.1,1.1-0.9,1c-0.7-0.1-1.4-0.4-2-0.9
				c-0.4-0.4-0.7-0.9-0.7-1.5v-12c0-1.3,0.9-1.2,1.9-0.8c1.1,0.5,1.7,0.9,1.7,2.1V212.3z M67.4,214v-12.1c0-4.3-2.8-7-6.6-8.3
				c-3.7-1.2-7.8-1.6-7.8,3.6v12.1c0,2.7,1,4.8,3.3,6.4c1.9,1.3,5.1,2.7,7.4,2.7C66.4,218.4,67.4,216.4,67.4,214 M75.2,217.7
				l7.1-12.4v-3.8L71,197.7l-0.3-0.1v4.6l6.2,2l-7,12.6v3.7l11.7,4l0.3,0.1v-4.6L75.2,217.7z M94.8,222.6l4.7-1.6v-23.2l-4.8,1.6
				v13.8l-4.4-12.3l-4.7,1.6v23.2l4.8-1.6v-11.9L94.8,222.6z M112,208.1l-3.1,1.1l1.3-9.8L112,208.1z M113.8,216.1l5-1.7l-5.9-21.1
				l-6.2,2.1l-4.5,24.7l5.5-1.9l0.6-4l4.8-1.7L113.8,216.1z M129.1,187l2.2-4l-4.1,1.5l-1.1,3.5L129.1,187z M134.8,208.8v-23.2
				l-4.8,1.6v13.3l-4.4-11.8l-4.7,1.6v23.2l4.8-1.6v-12.4l4.4,10.9L134.8,208.8z"/>
			<path class="st1" d="M135,114.8l-23,23v-5.6l23-23V95.4l-23,27v-5.8l23-27.4V68l-37.5,55.3v21.3c3.2,2.1,5.3,5.8,5.3,9.9
				s-2.1,7.8-5.3,9.9v8.3c0.6,0.1,1.2,0.2,1.9,0.2c3.1,0,5.8-1.7,7.2-4.2c4.3-0.2,7.8-3.7,7.8-8.1c0-1.6-0.5-3.1-1.3-4.4
				c2-1.5,3.4-3.9,3.4-6.6c0-1.9-0.7-3.7-1.8-5.1l20.4-16.2V114.8z"/>
			<path class="st2" d="M36,114.8l23,23v-5.6l-23-23V95.4l23,27v-5.8L36,89.2V68l37.5,55.3v21.3c-3.2,2.1-5.3,5.8-5.3,9.9
				s2.1,7.8,5.3,9.9v8.3c-0.6,0.1-1.2,0.2-1.9,0.2c-3.1,0-5.8-1.7-7.2-4.2c-4.3-0.2-7.8-3.7-7.8-8.1c0-1.6,0.5-3.1,1.3-4.4
				c-2-1.5-3.4-3.9-3.4-6.6c0-1.9,0.7-3.7,1.8-5.1L36,128.3V114.8z"/>
			<path class="st1" d="M76.2,29.2v2c0,7.1-13.7,7.1-13.7,0v-2.8h5.2v2.5c0,2,3.2,1.7,3.2,0v-1c0-4.4-8.4-2.7-8.4-9.4v-2
				c0-7.1,13.7-7.1,13.7,0v2.8H71v-2.5c0-2-3.2-1.7-3.2,0v0.9C67.8,23.9,76.2,22.4,76.2,29.2 M84.4,13.5h5.3v18.1h4.8l0,4.5H84.4
				L84.4,13.5z M97.4,13.5l11.2,0l0,4.5h-5.9v4.6h4.5v4.5h-4.5v4.6h5.9l0,4.5H97.4V13.5z M128.1,36.1V13.5h5.3v9.1h3.7v-9.1h5.3
				v22.6h-5.3v-9.1h-3.7v9.1H128.1z M124.8,18.5v3.7h-5.2v-3.3c0-1.7-3.2-2-3.2,0v11.7c0,2,3.2,1.7,3.2,0v-3.1h5.2v3.7
				c0,7.1-13.7,7.1-13.7,0V18.5C111.2,11.3,124.8,11.3,124.8,18.5 M45.7,36.1V13.5H51v9l0.9,0l3.6-9h5.3l-4.5,11L61,36.1h-5.4
				L52,26.9h-1v9.2H45.7z M28.6,36.1V13.5h5.3v9l0.9,0l3.6-9h5.3l-4.5,11l4.8,11.6h-5.4l-3.6-9.2h-1v9.2H28.6z"/>
		</g>
	</g>
	<g>
		<path class="st2" d="M263.8,225.7v-150H286v127.6h32.1v22.4H263.8z"/>
		<path class="st2" d="M328.4,225.7v-150h55.8v22.7h-33.6V138h27.8v22.7h-27.8v42.4h33.6v22.6H328.4z"/>
		<path class="st2" d="M461,178.2v13.2c0,21.4-6.9,36.3-31.9,36.3c-25.2,0-31.7-15.2-31.7-37.8v-77.8c0-22.9,6.7-38.5,31.8-38.5
			S461,90,461,111.1V123h-22.4v-11.7c0-9.1-1.1-15.1-9.5-15.1c-8.3,0-9.4,5.7-9.4,15.8v77.7c0,9.9,0.9,16.8,9.5,16.8
			c7.9,0,9.4-5.8,9.4-15.3v-13H461z"/>
		<path class="st2" d="M476.6,225.7v-150h22.3v63h21.3v-63h22.3v150h-22.3v-64.3h-21.3v64.3H476.6z"/>
		<path class="st2" d="M646,126c0,27.8-7.8,38.2-27.8,38.2h-15v61.5h-8.1V75.8h24.6c17.8,0,26.3,10.2,26.3,36V126z M638,116
			c0-23.2-3.1-32.5-20.1-32.5h-14.7v73.1h16.1c17.9,0,18.7-15.9,18.7-33.7V116z"/>
		<path class="st2" d="M687.8,74.3c25.3,0,26.9,20.4,26.9,40.8v71c0,21.3-2.1,41-26.9,41h-0.1c-25.4,0-26.9-20.4-26.9-40.9v-70.9
			C660.8,93.9,662.8,74.3,687.8,74.3L687.8,74.3z M687.9,219.6c16.9,0,18.6-11.6,18.6-33.6v-70.6c0-20.5-1.2-33.4-18.6-33.4h-0.4
			c-16.7,0-18.5,11.9-18.5,33.6v70.6c0,20.6,1.1,33.4,18.7,33.4H687.9z"/>
		<path class="st2" d="M726.8,225.7v-7.3l42.3-134.7h-39.8V76h49v7.3l-42.6,134.8h42.1v7.6H726.8z"/>
		<path class="st2" d="M793.3,225.7V75.8h14.1l32.9,141l-0.2-141h8.2l0.6,149.9h-14.1L801.3,84.5l0.2,141.2H793.3z"/>
		<path class="st2" d="M915.6,225.7l-6.3-38.8h-34.1l-6.3,38.8h-8.4l25.2-149.9h13l25.2,149.9H915.6z M876.3,179.5h31.8l-15.7-96.2
			h-0.5L876.3,179.5z"/>
		<path class="st2" d="M936.8,225.7V75.8h14.1l32.9,141l-0.2-141h8.2l0.6,149.9h-14.1L944.8,84.5l0.2,141.2H936.8z M981.4,43.9
			l-12,23.5h-7.1l10.5-23.5H981.4z"/>
	</g>
</g>
</svg>
